#!OML:ASF F:\VICON\USERDATA\INSTALL\rory3\rory3.ASF
:FULLY-SPECIFIED
:DEGREES
555
root -0.181804 17.6503 -4.03105 -2.01419 37.63 -4.90754
lowerback 3.82869 2.02331 3.83122
upperback -0.778045 2.78624 -4.68546
thorax -2.53847 1.31084 -7.2101
lowerneck -23.4556 -13.3711 -13.2399
upperneck -0.591249 -14.6015 10.911
head 5.14101 -6.3928 3.77557
rclavicle 7.33018e-014 -2.8625e-014
rhumerus 72.0951 -17.9608 -34.3329
rradius 29.5684
rwrist 28.1459
rhand -21.7809 -11.6575
rfingers 7.12502
rthumb 4.62033 -41.5871
lclavicle 7.33018e-014 -2.8625e-014
lhumerus -32.6962 8.81083 66.027
lradius 34.369
lwrist -6.05301
lhand -10.6061 29.6253
lfingers 7.12502
lthumb 15.3999 59.0317
rfemur -8.66252 7.81835 11.7877
rtibia 25.0526
rfoot -15.583 -8.91852
rtoes 3.722
lfemur -7.6325 -5.1708 -13.7658
ltibia 30.182
lfoot -20.969 -9.44726
ltoes -10.2687
556
root -0.211151 17.648 -3.99906 -1.84441 37.619 -4.73384
lowerback 3.73504 2.03883 3.76905
upperback -0.773811 2.80185 -4.74208
thorax -2.47909 1.32176 -7.23048
lowerneck -23.5815 -13.371 -13.1341
upperneck -0.635293 -14.6003 10.8545
head 5.13139 -6.39007 3.73992
rclavicle -1.05356e-014 -2.38542e-014
rhumerus 72.3693 -18.0045 -34.6583
rradius 29.6838
rwrist 28.3181
rhand -21.6294 -11.6255
rfingers 7.12502
rthumb 4.76659 -41.5519
lclavicle -1.05356e-014 -2.38542e-014
lhumerus -33.1084 8.38023 66.0146
lradius 34.9162
lwrist -5.46597
lhand -10.5534 29.8895
lfingers 7.12502
lthumb 15.4507 59.292
rfemur -8.7194 7.99867 11.7289
rtibia 25.139
rfoot -15.682 -8.73037
rtoes 2.89578
lfemur -7.63231 -5.093 -13.7421
ltibia 30.1198
lfoot -20.9951 -9.53395
ltoes -10.4082
557
root -0.240993 17.6463 -3.96875 -1.72405 37.5669 -4.65093
lowerback 3.69161 2.05397 3.78717
upperback -0.804859 2.82143 -4.76396
thorax -2.48203 1.33043 -7.26408
lowerneck -23.6929 -13.3566 -13.1649
upperneck -0.623049 -14.562 10.9158
head 5.15453 -6.36291 3.7651
rclavicle -1.16239e-013 3.49861e-014
rhumerus 72.6276 -18.0206 -34.8872
rradius 29.7644
rwrist 28.435
rhand -21.4272 -11.8013
rfingers 7.12502
rthumb 4.96187 -41.7232
lclavicle -1.16239e-013 3.49861e-014
lhumerus -33.2831 8.60601 65.796
lradius 34.8766
lwrist -5.48404
lhand -10.4694 29.9584
lfingers 7.12502
lthumb 15.5316 59.3546
rfemur -8.83956 8.06656 11.7527
rtibia 25.2334
rfoot -15.7403 -8.53439
rtoes 2.78385
lfemur -7.6106 -5.05618 -13.6456
ltibia 30.039
lfoot -21.0004 -9.52185
ltoes -10.2937
558
root -0.27131 17.6425 -3.93689 -1.65763 37.5363 -4.57182
lowerback 3.72847 2.07436 3.80372
upperback -0.826867 2.84967 -4.77303
thorax -2.52013 1.3425 -7.2873
lowerneck -23.7932 -13.3636 -13.2616
upperneck -0.618956 -14.5353 10.9907
head 5.18005 -6.34061 3.80273
rclavicle -1.88845e-014 9.54166e-015
rhumerus 72.7441 -18.0331 -34.8282
rradius 29.7456
rwrist 28.4225
rhand -21.638 -11.6479
rfingers 7.12502
rthumb 4.75837 -41.5745
lclavicle -1.88845e-014 9.54166e-015
lhumerus -33.3831 8.97916 65.5619
lradius 34.7036
lwrist -5.57941
lhand -10.3045 29.5574
lfingers 7.12502
lthumb 15.6904 58.9412
rfemur -8.89584 8.08494 11.8079
rtibia 25.3073
rfoot -15.7653 -8.35024
rtoes 2.97101
lfemur -7.55235 -5.11045 -13.555
ltibia 29.982
lfoot -20.9877 -9.46144
ltoes -10.0816
559
root -0.304024 17.641 -3.90357 -1.6613 37.5085 -4.64417
lowerback 3.79429 2.07792 3.94198
upperback -0.909489 2.86057 -4.79235
thorax -2.63406 1.33964 -7.39491
lowerneck -23.7852 -13.3512 -13.2648
upperneck -0.624294 -14.5252 11.0549
head 5.18301 -6.33174 3.82521
rclavicle -1.13456e-013 2.8625e-014
rhumerus 72.7458 -17.9632 -34.7284
rradius 29.746
rwrist 28.095
rhand -21.8871 -11.2288
rfingers 7.12502
rthumb 4.51777 -41.1607
lclavicle -1.13456e-013 2.8625e-014
lhumerus -33.5042 9.41548 65.2441
lradius 34.4308
lwrist -5.90525
lhand -10.229 28.9921
lfingers 7.12502
lthumb 15.7631 58.3703
rfemur -8.98231 8.12373 12.018
rtibia 25.4031
rfoot -15.849 -8.18223
rtoes 3.13497
lfemur -7.53972 -5.16807 -13.3202
ltibia 29.9348
lfoot -20.9937 -9.37605
ltoes -10.4407
560
root -0.337053 17.6392 -3.87062 -1.6356 37.4684 -4.73119
lowerback 3.78174 2.07604 4.05579
upperback -0.990602 2.86187 -4.80065
thorax -2.7055 1.3337 -7.47206
lowerneck -23.7033 -13.2783 -13.0467
upperneck -0.736657 -14.4824 10.9555
head 5.10815 -6.3207 3.77593
rclavicle -1.04809e-013 3.33958e-014
rhumerus 72.7802 -17.9041 -34.7265
rradius 29.8491
rwrist 27.8616
rhand -21.778 -11.1262
rfingers 7.12502
rthumb 4.6231 -41.0558
lclavicle -1.04809e-013 3.33958e-014
lhumerus -33.669 9.71088 64.9702
lradius 34.2413
lwrist -6.20736
lhand -10.2489 29.0383
lfingers 7.12502
lthumb 15.744 58.4179
rfemur -9.14633 8.01989 12.2418
rtibia 25.5515
rfoot -15.903 -8.05377
rtoes 2.7239
lfemur -7.57178 -5.21476 -13.0733
ltibia 29.8707
lfoot -21.0041 -9.23991
ltoes -11.0935
561
root -0.371871 17.6365 -3.83615 -1.61653 37.4345 -4.71683
lowerback 3.79088 2.09707 4.05177
upperback -1.00213 2.88996 -4.79306
thorax -2.71877 1.34711 -7.46378
lowerneck -23.7158 -13.2698 -12.9339
upperneck -0.807017 -14.4846 10.8658
head 5.07147 -6.32665 3.73315
rclavicle 6.77359e-014 4.77083e-015
rhumerus 72.8327 -17.918 -34.7113
rradius 29.9615
rwrist 27.8461
rhand -21.8401 -11.0626
rfingers 7.12502
rthumb 4.56316 -40.9934
lclavicle 6.77359e-014 4.77083e-015
lhumerus -33.7674 9.84694 64.8474
lradius 34.0628
lwrist -6.29454
lhand -10.2807 29.3454
lfingers 7.12502
lthumb 15.7134 58.7274
rfemur -9.24778 7.83851 12.4175
rtibia 25.749
rfoot -15.9955 -8.03225
rtoes 2.15335
lfemur -7.52173 -5.18243 -12.904
ltibia 29.7902
lfoot -21.0078 -9.21297
ltoes -11.5507
